<?xml version="1.0" encoding="UTF-8" standalone="no"?>
<!DOCTYPE svg PUBLIC "-//W3C//DTD SVG 1.1//EN" "http://www.w3.org/Graphics/SVG/1.1/DTD/svg11.dtd">
<svg width="100%" height="100%" viewBox="0 0 500 500" version="1.1" xmlns="http://www.w3.org/2000/svg" xmlns:xlink="http://www.w3.org/1999/xlink" xml:space="preserve" xmlns:serif="http://www.serif.com/" style="fill-rule:evenodd;clip-rule:evenodd;stroke-linejoin:round;stroke-miterlimit:2;">
    <g transform="matrix(0.707107,0.707107,-1.414214,1.414214,432.385169,-285.233754)">
        <path d="M205.81,281.961C205.81,280.264 204.462,278.637 202.062,277.437C199.662,276.236 196.406,275.562 193.012,275.562L57.684,275.562C46.097,275.562 34.984,273.261 26.791,269.164C18.597,265.067 13.994,259.511 13.994,253.717L13.994,253.716C13.994,247.922 18.597,242.366 26.791,238.269C34.984,234.172 46.097,231.871 57.684,231.871L193.012,231.871C196.406,231.871 199.662,231.197 202.062,229.997C204.462,228.797 205.81,227.169 205.81,225.472L205.81,157.808C205.81,152.014 210.413,146.458 218.607,142.361C226.8,138.265 237.913,135.963 249.5,135.963L249.503,135.963C261.09,135.963 272.203,138.265 280.396,142.361C288.59,146.458 293.193,152.014 293.193,157.808L293.193,225.472C293.193,227.169 294.541,228.797 296.942,229.997C299.342,231.197 302.597,231.871 305.991,231.871L441.319,231.871C452.906,231.871 464.019,234.172 472.212,238.269C480.406,242.366 485.009,247.922 485.009,253.716L485.009,253.717C485.009,259.511 480.406,265.067 472.212,269.164C464.019,273.261 452.906,275.562 441.319,275.562L305.991,275.562C302.597,275.562 299.342,276.236 296.942,277.437C294.541,278.637 293.193,280.264 293.193,281.961L293.193,349.625C293.193,355.419 288.59,360.975 280.396,365.072C272.203,369.169 261.09,371.47 249.503,371.47L249.5,371.47C237.913,371.47 226.8,369.169 218.607,365.072C210.413,360.975 205.81,355.419 205.81,349.625L205.81,281.961Z" style="fill:rgb(124,103,129);"/>
    </g>
</svg>
