<?xml version="1.0" encoding="UTF-8" standalone="no"?>
<!DOCTYPE svg PUBLIC "-//W3C//DTD SVG 1.1//EN" "http://www.w3.org/Graphics/SVG/1.1/DTD/svg11.dtd">
<svg width="100%" height="100%" viewBox="0 0 500 500" version="1.1" xmlns="http://www.w3.org/2000/svg" xmlns:xlink="http://www.w3.org/1999/xlink" xml:space="preserve" xmlns:serif="http://www.serif.com/" style="fill-rule:evenodd;clip-rule:evenodd;stroke-linejoin:round;stroke-miterlimit:2;">
    <g transform="matrix(1.505777,0,0,1.257235,-149.87163,-117.572138)">
        <path d="M195.652,449.377C195.652,456.619 190.751,462.489 184.704,462.489C179.115,462.489 172.334,462.489 166.745,462.489C160.699,462.489 155.797,456.619 155.797,449.377C155.797,417.856 155.797,338.112 155.797,306.59C155.797,303.113 154.644,299.778 152.591,297.319C150.537,294.86 147.753,293.478 144.849,293.478L128.466,293.478C123.914,293.478 119.837,290.105 118.226,285.006C116.615,279.908 117.807,274.147 121.218,270.538C158.882,230.698 234.628,150.577 258.311,125.526C262.451,121.147 268.666,121.147 272.806,125.526C296.489,150.577 372.234,230.698 409.898,270.538C413.31,274.147 414.501,279.908 412.891,285.006C411.28,290.105 407.203,293.478 402.651,293.478L386.268,293.478C383.364,293.478 380.579,294.86 378.526,297.319C376.473,299.778 375.32,303.113 375.32,306.59L375.32,449.377C375.32,452.855 374.166,456.19 372.113,458.649C370.06,461.108 367.275,462.489 364.372,462.489L267.164,462.489C264.26,462.489 261.476,461.108 259.423,458.649C257.369,456.19 256.216,452.855 256.216,449.377L256.216,365.84C256.216,358.599 251.315,352.728 245.268,352.728L206.6,352.728C200.554,352.728 195.652,358.599 195.652,365.84L195.652,449.377ZM344.385,333.06C344.385,325.818 339.483,319.948 333.437,319.948C324.235,319.948 311.149,319.948 301.948,319.948C295.901,319.948 291,325.818 291,333.06C291,345.136 291,362.96 291,375.037C291,382.278 295.901,388.149 301.948,388.149C311.149,388.149 324.235,388.149 333.437,388.149C339.483,388.149 344.385,382.278 344.385,375.037C344.385,362.96 344.385,345.136 344.385,333.06Z" style="fill:rgb(124,103,129);"/>
    </g>
</svg>
